<?xml version="1.0" encoding="UTF-8"?>
<svg xmlns="http://www.w3.org/2000/svg" xmlns:xlink="http://www.w3.org/1999/xlink" width="64px" height="px" viewBox="0 0 64 64" version="1.1">
<g id="surface1">
<path style=" stroke:none;fill-rule:nonzero;fill:rgb(9.019608%,7.45098%,12.941176%);fill-opacity:1;" d="M 47.632812 28.753906 L 47.589844 28.636719 L 43.1875 17.148438 C 43.097656 16.921875 42.9375 16.730469 42.734375 16.601562 C 42.3125 16.34375 41.777344 16.371094 41.386719 16.675781 C 41.199219 16.828125 41.0625 17.035156 40.996094 17.269531 L 38.023438 26.363281 L 25.984375 26.363281 L 23.011719 17.269531 C 22.949219 17.035156 22.8125 16.824219 22.621094 16.671875 C 22.234375 16.371094 21.695312 16.339844 21.273438 16.601562 C 21.070312 16.730469 20.910156 16.921875 20.820312 17.148438 L 16.410156 28.632812 L 16.367188 28.746094 C 15.066406 32.148438 16.171875 36.003906 19.078125 38.195312 L 19.09375 38.207031 L 19.132812 38.238281 L 25.839844 43.257812 L 29.160156 45.769531 L 31.179688 47.296875 C 31.664062 47.664062 32.335938 47.664062 32.824219 47.296875 L 34.84375 45.769531 L 38.164062 43.257812 L 44.910156 38.207031 L 44.925781 38.191406 C 47.828125 36 48.929688 32.152344 47.632812 28.753906 Z M 47.632812 28.753906 "/>
</g>
</svg>
