<?xml version="1.0" encoding="UTF-8"?>
<svg xmlns="http://www.w3.org/2000/svg" xmlns:xlink="http://www.w3.org/1999/xlink" width="16px" height="12px" viewBox="0 0 16 12" version="1.1">
<g id="surface1">
<path style=" stroke:none;fill-rule:nonzero;fill:rgb(0%,0%,0%);fill-opacity:1;" d="M 2.261719 3.914062 L 4.871094 3.914062 L 4.871094 12 L 2.261719 12 Z M 2.261719 3.914062 "/>
<path style=" stroke:none;fill-rule:nonzero;fill:rgb(0%,0%,0%);fill-opacity:1;" d="M 4.347656 0.78125 L 4.347656 0 L 2.78125 0 L 2.78125 0.78125 L 2 0.78125 L 2 2.347656 L 2.78125 2.347656 L 2.78125 3.128906 L 4.347656 3.128906 L 4.347656 2.347656 L 5.128906 2.347656 L 5.128906 0.78125 L 4.347656 0.78125 "/>
<path style=" stroke:none;fill-rule:nonzero;fill:rgb(0%,0%,0%);fill-opacity:1;" d="M 13.21875 5.476562 L 13.21875 4.695312 L 12.433594 4.695312 L 12.433594 3.914062 L 8.78125 3.914062 L 8.78125 4.695312 L 8 4.695312 L 8 3.914062 L 5.652344 3.914062 L 5.652344 12 L 8.261719 12 L 8.261719 7.042969 L 9.042969 7.042969 L 9.042969 6.261719 L 10.609375 6.261719 L 10.609375 7.042969 L 11.390625 7.042969 L 11.390625 12 L 14 12 L 14 5.476562 L 13.21875 5.476562 "/>
</g>
</svg>
