<svg xmlns="http://www.w3.org/2000/svg"  viewBox="0 0 50 50" width="32px" height="32px"><path d="M 8 3.0117188 C 6.3243556 3.0117186 4.8517223 3.4556501 3.7636719 4.3105469 C 2.6756214 5.1654436 2.0117188 6.4640138 2.0117188 7.9003906 C 2.0117188 10.773144 4.6048 12.988281 8 12.988281 C 9.7412258 12.988281 11.234704 12.477413 12.304688 11.5625 C 13.374671 10.647587 13.988281 9.3224486 13.988281 7.9003906 A 0.98809878 0.98809878 0 0 0 13.986328 7.8554688 C 13.861647 5.1114423 11.373244 3.0117188 8 3.0117188 z M 3 15 A 1.0001 1.0001 0 0 0 2 16 L 2 45 A 1.0001 1.0001 0 0 0 3 46 L 13 46 A 1.0001 1.0001 0 0 0 14 45 L 14 35.699219 L 14 16 A 1.0001 1.0001 0 0 0 13 15 L 3 15 z M 18 15 A 1.0001 1.0001 0 0 0 17 16 L 17 45.099609 A 1.0001 1.0001 0 0 0 18 46.099609 L 28 46.099609 A 1.0001 1.0001 0 0 0 29 45.099609 L 29 29.099609 L 29 28.800781 L 29 28.5 C 29 26.533333 30.533333 25 32.5 25 C 34.466667 25 36 26.533333 36 28.5 L 36 45 A 1.0001 1.0001 0 0 0 37 46 L 47 46 A 1.0001 1.0001 0 0 0 48 45 L 48 28 C 48 23.855907 46.781684 20.586343 44.736328 18.361328 C 42.690972 16.136313 39.844829 15 36.800781 15 C 32.892578 15 30.522592 16.421774 29 17.583984 L 29 16 A 1.0001 1.0001 0 0 0 28 15 L 18 15 z"/></svg>