<?xml version="1.0" encoding="UTF-8"?>
<svg xmlns="http://www.w3.org/2000/svg" xmlns:xlink="http://www.w3.org/1999/xlink" width="32px" height="48px" viewBox="0 0 32 24" version="1.1">
<g id="surface1">
<path style=" stroke:none;fill-rule:nonzero;fill:rgb(0%,0%,0%);fill-opacity:1;" d="M 4.523438 7.828125 L 9.742188 7.828125 L 9.742188 24 L 4.523438 24 Z M 4.523438 7.828125 "/>
<path style=" stroke:none;fill-rule:nonzero;fill:rgb(0%,0%,0%);fill-opacity:1;" d="M 8.695312 1.5625 L 8.695312 0 L 5.5625 0 L 5.5625 1.5625 L 4 1.5625 L 4 4.695312 L 5.5625 4.695312 L 5.5625 6.257812 L 8.695312 6.257812 L 8.695312 4.695312 L 10.257812 4.695312 L 10.257812 1.5625 L 8.695312 1.5625 "/>
<path style=" stroke:none;fill-rule:nonzero;fill:rgb(0%,0%,0%);fill-opacity:1;" d="M 26.4375 10.953125 L 26.4375 9.390625 L 24.867188 9.390625 L 24.867188 7.828125 L 17.5625 7.828125 L 17.5625 9.390625 L 16 9.390625 L 16 7.828125 L 11.304688 7.828125 L 11.304688 24 L 16.523438 24 L 16.523438 14.085938 L 18.085938 14.085938 L 18.085938 12.523438 L 21.21875 12.523438 L 21.21875 14.085938 L 22.78125 14.085938 L 22.78125 24 L 28 24 L 28 10.953125 L 26.4375 10.953125 "/>
</g>
</svg>
