<?xml version="1.0" standalone="no"?>
<!DOCTYPE svg PUBLIC "-//W3C//DTD SVG 1.0//EN" "http://www.w3.org/TR/2001/REC-SVG-20010904/DTD/svg10.dtd">
<svg xmlns="http://www.w3.org/2000/svg" xmlns:xlink="http://www.w3.org/1999/xlink" id="body_1" width="128" height="96">

<g transform="matrix(0.1875 0 0 0.1875 16.000004 -0)">
	<g>
		<g>
            <path d="M11.13 166.957L122.434 166.957L122.434 512L11.13 512z" stroke="none" fill="#000000" fill-rule="nonzero" />
		</g>
	</g>
	<g>
		<g>
            <path d="M100.174 33.391L100.174 0L33.391 0L33.391 33.391L0 33.391L0 100.174L33.391 100.174L33.391 133.565L100.174 133.565L100.174 100.174L133.565 100.174L133.565 33.391L100.174 33.391" stroke="none" fill="#000000" fill-rule="nonzero" />
		</g>
	</g>
	<g>
		<g>
            <path d="M478.609 233.739L478.609 200.348L445.217 200.348L445.217 166.957L289.391 166.957L289.391 200.348L256 200.348L256 166.957L155.826 166.957L155.826 512L267.13 512L267.13 300.522L300.522 300.522L300.522 267.13L367.304 267.13L367.304 300.522L400.696 300.522L400.696 512L512 512L512 233.739L478.609 233.739" stroke="none" fill="#000000" fill-rule="nonzero" />
		</g>
	</g>
	<g>
	</g>
	<g>
	</g>
	<g>
	</g>
	<g>
	</g>
	<g>
	</g>
	<g>
	</g>
	<g>
	</g>
	<g>
	</g>
	<g>
	</g>
	<g>
	</g>
	<g>
	</g>
	<g>
	</g>
	<g>
	</g>
	<g>
	</g>
	<g>
	</g>
</g>
</svg>