<?xml version="1.0" encoding="UTF-8"?>
<svg xmlns="http://www.w3.org/2000/svg" xmlns:xlink="http://www.w3.org/1999/xlink" width="64px" height="48px" viewBox="0 0 64 48" version="1.1">
<g id="surface1">
<path style=" stroke:none;fill-rule:nonzero;fill:rgb(0%,0%,0%);fill-opacity:1;" d="M 9.046875 15.65625 L 19.484375 15.65625 L 19.484375 48 L 9.046875 48 Z M 9.046875 15.65625 "/>
<path style=" stroke:none;fill-rule:nonzero;fill:rgb(0%,0%,0%);fill-opacity:1;" d="M 17.390625 3.125 L 17.390625 0 L 11.125 0 L 11.125 3.125 L 8 3.125 L 8 9.390625 L 11.125 9.390625 L 11.125 12.515625 L 17.390625 12.515625 L 17.390625 9.390625 L 20.515625 9.390625 L 20.515625 3.125 L 17.390625 3.125 "/>
<path style=" stroke:none;fill-rule:nonzero;fill:rgb(0%,0%,0%);fill-opacity:1;" d="M 52.875 21.90625 L 52.875 18.78125 L 49.734375 18.78125 L 49.734375 15.65625 L 35.125 15.65625 L 35.125 18.78125 L 32 18.78125 L 32 15.65625 L 22.609375 15.65625 L 22.609375 48 L 33.046875 48 L 33.046875 28.171875 L 36.171875 28.171875 L 36.171875 25.046875 L 42.4375 25.046875 L 42.4375 28.171875 L 45.5625 28.171875 L 45.5625 48 L 56 48 L 56 21.90625 L 52.875 21.90625 "/>
</g>
</svg>
